<svg x="0" y="0" viewBox="0 0 384 384" xmlns="http://www.w3.org/2000/svg" style="stroke:#000000; fill:#ffffff; stroke-width: 0.5">

<polygon points="21,47.5 60,25 129,25 145,34 159,34 175,25 239.5,25 324,25 362,47.5 362,72.5 317.5,148.5 200,148.5 188.875,162.125 115.125,162.125 104,148.5 66.5,148.5 21,72.5"/>
<polygon points="21,239.5 60,217 129,217 145,226 159,226 175,217 239.5,217 324,217 362,239.5 362,264.5 317.5,340.5 200,340.5 188.875,354.125 115.125,354.125 104,340.5 66.5,340.5 21,264.5"/>

<rect x="30" y="46" height="14" width="14" transform="rotate(-30 37 53)"></rect>
<rect x="47.5" y="36" height="14" width="14" transform="rotate(-30 54.5 43)"></rect>
<rect x="67.5" y="31" height="14" width="14"></rect>
<rect x="87.5" y="31" height="14" width="14"></rect>
<rect x="107.5" y="31" height="14" width="14"></rect>
<rect x="127.5" y="36" height="14" width="14" transform="rotate(30 134.5 43)"></rect>
<rect x="145" y="46" height="14" width="14"></rect>
<rect x="162.5" y="36" height="14" width="14" transform="rotate(-30 169.5 43)"></rect>
<rect x="182.5" y="31" height="14" width="14"></rect>
<rect x="202.5" y="31" height="14" width="14"></rect>
<rect x="222.5" y="31" height="14" width="14"></rect>
<rect x="242.5" y="36" height="14" width="14"></rect>
<rect x="262.5" y="36" height="14" width="14"></rect>
<rect x="282.5" y="36" height="14" width="14"></rect>
<rect x="302.5" y="36" height="14" width="14"></rect>
<rect x="322.5" y="36" height="14" width="14" transform="rotate(30 329.5 43)"></rect>
<rect x="340" y="46" height="14" width="14" transform="rotate(30 347 53)"></rect>

<rect x="30" y="66" height="14" width="14" transform="rotate(-30 37 73)"></rect>
<rect x="47.5" y="56" height="14" width="14" transform="rotate(-30 54.5 63)"></rect>
<rect x="67.5" y="51" height="14" width="14"></rect>
<rect x="87.5" y="51" height="14" width="14"></rect>
<rect x="107.5" y="51" height="14" width="14"></rect>
<rect x="127.5" y="56" height="14" width="14" transform="rotate(30 134.5 63)"></rect>
<rect x="145" y="66" height="14" width="14"></rect>
<rect x="162.5" y="56" height="14" width="14" transform="rotate(-30 169.5 63)"></rect>
<rect x="182.5" y="51" height="14" width="14"></rect>
<rect x="202.5" y="51" height="14" width="14"></rect>
<rect x="222.5" y="51" height="14" width="14"></rect>
<rect x="242.5" y="56" height="14" width="14"></rect>
<rect x="262.5" y="56" height="14" width="14"></rect>
<rect x="282.5" y="56" height="14" width="14"></rect>
<rect x="302.5" y="56" height="14" width="14"></rect>
<rect x="322.5" y="56" height="14" width="14" transform="rotate(30 329.5 63)"></rect>
<rect x="340" y="66" height="14" width="14" transform="rotate(30 347 73)"></rect>

<rect x="40" y="83.5" height="14" width="14" transform="rotate(-30 47 90.5)"></rect>
<rect x="57.5" y="73.5" height="14" width="14" transform="rotate(-30 64.5 80.5)"></rect>
<rect x="77.5" y="68.5" height="14" width="14"></rect>
<rect x="97.5" y="68.5" height="14" width="14"></rect>
<rect x="117.5" y="73.5" height="14" width="14" transform="rotate(30 124.5 80.5)"></rect>
<rect x="135" y="83.5" height="14" width="14" transform="rotate(30 142 90.5)"></rect>
<rect x="155" y="83.5" height="14" width="14" transform="rotate(-30 162 90.5)"></rect>
<rect x="172.5" y="73.5" height="14" width="14" transform="rotate(-30 179.5 80.5)"></rect>
<rect x="192.5" y="68.5" height="14" width="14"></rect>
<rect x="212.5" y="68.5" height="14" width="14"></rect>
<rect x="232.5" y="73.5" height="14" width="14" transform="rotate(30 239.5 80.5)"></rect>
<rect x="252.5" y="73.5" height="14" width="14"></rect>
<rect x="272.5" y="73.5" height="14" width="14"></rect>
<rect x="292.5" y="73.5" height="14" width="14"></rect>
<rect x="312.5" y="73.5" height="14" width="14" transform="rotate(30 319.5 80.5)"></rect>
<rect x="330" y="83.5" height="14" width="14" transform="rotate(30 337 90.5)"></rect>

<rect x="50" y="101" height="14" width="14" transform="rotate(-30 57 108)"></rect>
<rect x="67.5" y="91" height="14" width="14" transform="rotate(-30 74.5 98)"></rect>
<rect x="87.5" y="86" height="14" width="14"></rect>
<rect x="107.5" y="91" height="14" width="14" transform="rotate(30 114.5 98)"></rect>
<rect x="125" y="101" height="14" width="14" transform="rotate(30 132 108)"></rect>
<rect x="145" y="101" height="14" width="14"></rect>
<rect x="165" y="101" height="14" width="14" transform="rotate(-30 172 108)"></rect>
<rect x="182.5" y="91" height="14" width="14" transform="rotate(-30 189.5 98)"></rect>
<rect x="202.5" y="86" height="14" width="14"></rect>
<rect x="222.5" y="91" height="14" width="14" transform="rotate(30 229.5 98)"></rect>
<rect x="242.5" y="91" height="14" width="14"></rect>
<rect x="262.5" y="91" height="14" width="14"></rect>
<rect x="282.5" y="91" height="14" width="14"></rect>
<rect x="302.5" y="91" height="14" width="14" transform="rotate(30 309.5 98)"></rect>
<rect x="320" y="101" height="14" width="14" transform="rotate(30 327 108)"></rect>

<rect x="60" y="118.5" height="14" width="14" transform="rotate(-30 67 125.5)"></rect>
<rect x="77.5" y="108.5" height="14" width="14"></rect>
<rect x="97.5" y="108.5" height="14" width="14"></rect>
<rect x="115" y="118.5" height="14" width="14" transform="rotate(30 122 125.5)"></rect>
<rect x="135" y="118.5" height="14" width="14" transform="rotate(30 142 125.5)"></rect>
<rect x="155" y="118.5" height="14" width="14" transform="rotate(-30 162 125.5)"></rect>
<rect x="175" y="118.5" height="14" width="14" transform="rotate(-30 182 125.5)"></rect>
<rect x="192.5" y="108.5" height="14" width="14"></rect>
<rect x="212.5" y="108.5" height="14" width="14"></rect>
<rect x="232.5" y="108.5" height="14" width="14"></rect>
<rect x="252.5" y="108.5" height="14" width="14"></rect>
<rect x="272.5" y="108.5" height="14" width="14"></rect>
<rect x="292.5" y="108.5" height="14" width="14"></rect>
<rect x="310" y="118.5" height="14" width="14" transform="rotate(30 317 125.5)"></rect>

<rect x="77.5" y="128.5" height="14" width="14"></rect>
<rect x="97.5" y="128.5" height="14" width="14"></rect>
<rect x="192.5" y="128.5" height="14" width="14"></rect>
<rect x="212.5" y="128.5" height="14" width="14"></rect>
<rect x="232.5" y="128.5" height="14" width="14"></rect>
<rect x="252.5" y="128.5" height="14" width="14"></rect>
<rect x="272.5" y="128.5" height="14" width="14"></rect>
<rect x="292.5" y="128.5" height="14" width="14"></rect>

<polygon points="118.125,140.875 125.875,140.875 125.875,152.375 145.125,152.375 145.125,138.625 158.875,138.625 158.875,152.375 178.125,152.375 178.125,140.875 185.875,140.875 185.875,156.125 118.125,156.125"/>

<circle cx="37" cy="245" r="2"/>
<circle cx="31.9" cy="245" r="0.75" transform="rotate(-30 37 245)"/>
<circle cx="42.1" cy="245" r="0.75" transform="rotate(-30 37 245)"/>
<circle cx="54.5" cy="235" r="2"/>
<circle cx="49.4" cy="235" r="0.75" transform="rotate(-30 54.5 235)"/>
<circle cx="59.6" cy="235" r="0.75" transform="rotate(-30 54.5 235)"/>
<circle cx="74.5" cy="230" r="2"/>
<circle cx="69.4" cy="230" r="0.75"/>
<circle cx="79.6" cy="230" r="0.75"/>
<circle cx="94.5" cy="230" r="2"/>
<circle cx="89.4" cy="230" r="0.75"/>
<circle cx="99.6" cy="230" r="0.75"/>
<circle cx="114.5" cy="230" r="2"/>
<circle cx="109.4" cy="230" r="0.75"/>
<circle cx="119.6" cy="230" r="0.75"/>
<circle cx="134.5" cy="235" r="2"/>
<circle cx="129.4" cy="235" r="0.75" transform="rotate(30 134.5 235)"/>
<circle cx="139.6" cy="235" r="0.75" transform="rotate(30 134.5 235)"/>
<circle cx="152" cy="245" r="2"/>
<circle cx="146.9" cy="245" r="0.75"/>
<circle cx="157.1" cy="245" r="0.75"/>
<circle cx="169.5" cy="235" r="2"/>
<circle cx="164.4" cy="235" r="0.75" transform="rotate(-30 169.5 235)"/>
<circle cx="174.6" cy="235" r="0.75" transform="rotate(-30 169.5 235)"/>
<circle cx="189.5" cy="230" r="2"/>
<circle cx="184.4" cy="230" r="0.75"/>
<circle cx="194.6" cy="230" r="0.75"/>
<circle cx="209.5" cy="230" r="2"/>
<circle cx="204.4" cy="230" r="0.75"/>
<circle cx="214.6" cy="230" r="0.75"/>
<circle cx="229.5" cy="230" r="2"/>
<circle cx="224.4" cy="230" r="0.75"/>
<circle cx="234.6" cy="230" r="0.75"/>
<circle cx="249.5" cy="235" r="2"/>
<circle cx="244.4" cy="235" r="0.75"/>
<circle cx="254.6" cy="235" r="0.75"/>
<circle cx="269.5" cy="235" r="2"/>
<circle cx="264.4" cy="235" r="0.75"/>
<circle cx="274.6" cy="235" r="0.75"/>
<circle cx="289.5" cy="235" r="2"/>
<circle cx="284.4" cy="235" r="0.75"/>
<circle cx="294.6" cy="235" r="0.75"/>
<circle cx="309.5" cy="235" r="2"/>
<circle cx="304.4" cy="235" r="0.75"/>
<circle cx="314.6" cy="235" r="0.75"/>
<circle cx="329.5" cy="235" r="2"/>
<circle cx="324.4" cy="235" r="0.75" transform="rotate(30 329.5 235)"/>
<circle cx="334.6" cy="235" r="0.75" transform="rotate(30 329.5 235)"/>
<circle cx="347" cy="245" r="2"/>
<circle cx="341.9" cy="245" r="0.75" transform="rotate(30 347 245)"/>
<circle cx="352.1" cy="245" r="0.75" transform="rotate(30 347 245)"/>

<circle cx="37" cy="265" r="2"/>
<circle cx="31.9" cy="265" r="0.75" transform="rotate(-30 37 265)"/>
<circle cx="42.1" cy="265" r="0.75" transform="rotate(-30 37 265)"/>
<circle cx="54.5" cy="255" r="2"/>
<circle cx="49.4" cy="255" r="0.75" transform="rotate(-30 54.5 255)"/>
<circle cx="59.6" cy="255" r="0.75" transform="rotate(-30 54.5 255)"/>
<circle cx="74.5" cy="250" r="2"/>
<circle cx="69.4" cy="250" r="0.75"/>
<circle cx="79.6" cy="250" r="0.75"/>
<circle cx="94.5" cy="250" r="2"/>
<circle cx="89.4" cy="250" r="0.75"/>
<circle cx="99.6" cy="250" r="0.75"/>
<circle cx="114.5" cy="250" r="2"/>
<circle cx="109.4" cy="250" r="0.75"/>
<circle cx="119.6" cy="250" r="0.75"/>
<circle cx="134.5" cy="255" r="2"/>
<circle cx="129.4" cy="255" r="0.75" transform="rotate(30 134.5 255)"/>
<circle cx="139.6" cy="255" r="0.75" transform="rotate(30 134.5 255)"/>
<circle cx="152" cy="265" r="2"/>
<circle cx="146.9" cy="265" r="0.75"/>
<circle cx="157.1" cy="265" r="0.75"/>
<circle cx="169.5" cy="255" r="2"/>
<circle cx="164.4" cy="255" r="0.75" transform="rotate(-30 169.5 255)"/>
<circle cx="174.6" cy="255" r="0.75" transform="rotate(-30 169.5 255)"/>
<circle cx="189.5" cy="250" r="2"/>
<circle cx="184.4" cy="250" r="0.75"/>
<circle cx="194.6" cy="250" r="0.75"/>
<circle cx="209.5" cy="250" r="2"/>
<circle cx="204.4" cy="250" r="0.75"/>
<circle cx="214.6" cy="250" r="0.75"/>
<circle cx="229.5" cy="250" r="2"/>
<circle cx="224.4" cy="250" r="0.75"/>
<circle cx="234.6" cy="250" r="0.75"/>
<circle cx="249.5" cy="255" r="2"/>
<circle cx="244.4" cy="255" r="0.75"/>
<circle cx="254.6" cy="255" r="0.75"/>
<circle cx="269.5" cy="255" r="2"/>
<circle cx="264.4" cy="255" r="0.75"/>
<circle cx="274.6" cy="255" r="0.75"/>
<circle cx="289.5" cy="255" r="2"/>
<circle cx="284.4" cy="255" r="0.75"/>
<circle cx="294.6" cy="255" r="0.75"/>
<circle cx="309.5" cy="255" r="2"/>
<circle cx="304.4" cy="255" r="0.75"/>
<circle cx="314.6" cy="255" r="0.75"/>
<circle cx="329.5" cy="255" r="2"/>
<circle cx="324.4" cy="255" r="0.75" transform="rotate(30 329.5 255)"/>
<circle cx="334.6" cy="255" r="0.75" transform="rotate(30 329.5 255)"/>
<circle cx="347" cy="265" r="2"/>
<circle cx="341.9" cy="265" r="0.75" transform="rotate(30 347 265)"/>
<circle cx="352.1" cy="265" r="0.75" transform="rotate(30 347 265)"/>

<circle cx="47" cy="282.5" r="2"/>
<circle cx="41.9" cy="282.5" r="0.75" transform="rotate(-30 47 282.5)"/>
<circle cx="52.1" cy="282.5" r="0.75" transform="rotate(-30 47 282.5)"/>
<circle cx="64.5" cy="272.5" r="2"/>
<circle cx="59.4" cy="272.5" r="0.75" transform="rotate(-30 64.5 272.5)"/>
<circle cx="69.6" cy="272.5" r="0.75" transform="rotate(-30 64.5 272.5)"/>
<circle cx="84.5" cy="267.5" r="2"/>
<circle cx="79.4" cy="267.5" r="0.75"/>
<circle cx="89.6" cy="267.5" r="0.75"/>
<circle cx="104.5" cy="267.5" r="2"/>
<circle cx="99.4" cy="267.5" r="0.75"/>
<circle cx="109.6" cy="267.5" r="0.75"/>
<circle cx="124.5" cy="272.5" r="2"/>
<circle cx="119.4" cy="272.5" r="0.75" transform="rotate(30 124.5 272.5)"/>
<circle cx="129.6" cy="272.5" r="0.75" transform="rotate(30 124.5 272.5)"/>
<circle cx="142" cy="282.5" r="2"/>
<circle cx="136.9" cy="282.5" r="0.75" transform="rotate(30 142 282.5)"/>
<circle cx="147.1" cy="282.5" r="0.75" transform="rotate(30 142 282.5)"/>
<circle cx="162" cy="282.5" r="2"/>
<circle cx="156.9" cy="282.5" r="0.75" transform="rotate(-30 162 282.5)"/>
<circle cx="167.1" cy="282.5" r="0.75" transform="rotate(-30 162 282.5)"/>
<circle cx="179.5" cy="272.5" r="2"/>
<circle cx="174.4" cy="272.5" r="0.75" transform="rotate(-30 179.5 272.5)"/>
<circle cx="184.6" cy="272.5" r="0.75" transform="rotate(-30 179.5 272.5)"/>
<circle cx="199.5" cy="267.5" r="2"/>
<circle cx="194.4" cy="267.5" r="0.75"/>
<circle cx="204.6" cy="267.5" r="0.75"/>
<circle cx="219.5" cy="267.5" r="2"/>
<circle cx="214.4" cy="267.5" r="0.75"/>
<circle cx="224.6" cy="267.5" r="0.75"/>
<circle cx="239.5" cy="272.5" r="2"/>
<circle cx="234.4" cy="272.5" r="0.75" transform="rotate(30 239.5 272.5)"/>
<circle cx="244.6" cy="272.5" r="0.75" transform="rotate(30 239.5 272.5)"/>
<circle cx="259.5" cy="272.5" r="2"/>
<circle cx="254.4" cy="272.5" r="0.75"/>
<circle cx="264.6" cy="272.5" r="0.75"/>
<circle cx="279.5" cy="272.5" r="2"/>
<circle cx="274.4" cy="272.5" r="0.75"/>
<circle cx="284.6" cy="272.5" r="0.75"/>
<circle cx="299.5" cy="272.5" r="2"/>
<circle cx="294.4" cy="272.5" r="0.75"/>
<circle cx="304.6" cy="272.5" r="0.75"/>
<circle cx="319.5" cy="272.5" r="2"/>
<circle cx="314.4" cy="272.5" r="0.75" transform="rotate(30 319.5 272.5)"/>
<circle cx="324.6" cy="272.5" r="0.75" transform="rotate(30 319.5 272.5)"/>
<circle cx="337" cy="282.5" r="2"/>
<circle cx="331.9" cy="282.5" r="0.75" transform="rotate(30 337 282.5)"/>
<circle cx="342.1" cy="282.5" r="0.75" transform="rotate(30 337 282.5)"/>

<circle cx="57" cy="300" r="2"/>
<circle cx="51.9" cy="300" r="0.75" transform="rotate(-30 57 300)"/>
<circle cx="62.1" cy="300" r="0.75" transform="rotate(-30 57 300)"/>
<circle cx="74.5" cy="290" r="2"/>
<circle cx="69.4" cy="290" r="0.75" transform="rotate(-30 74.5 290)"/>
<circle cx="79.6" cy="290" r="0.75" transform="rotate(-30 74.5 290)"/>
<circle cx="94.5" cy="285" r="2"/>
<circle cx="89.4" cy="285" r="0.75"/>
<circle cx="99.4" cy="285" r="0.75"/>
<circle cx="114.5" cy="290" r="2"/>
<circle cx="109.4" cy="290" r="0.75" transform="rotate(30 114.5 290)"/>
<circle cx="119.6" cy="290" r="0.75" transform="rotate(30 114.5 290)"/>
<circle cx="132" cy="300" r="2"/>
<circle cx="126.9" cy="300" r="0.75" transform="rotate(30 132 300)"/>
<circle cx="137.1" cy="300" r="0.75" transform="rotate(30 132 300)"/>
<circle cx="152" cy="300" r="2"/>
<circle cx="146.9" cy="300" r="0.75"/>
<circle cx="157.1" cy="300" r="0.75"/>
<circle cx="172" cy="300" r="2"/>
<circle cx="166.9" cy="300" r="0.75" transform="rotate(-30 172 300)"/>
<circle cx="177.1" cy="300" r="0.75" transform="rotate(-30 172 300)"/>
<circle cx="189.5" cy="290" r="2"/>
<circle cx="184.4" cy="290" r="0.75" transform="rotate(-30 189.5 290)"/>
<circle cx="194.6" cy="290" r="0.75" transform="rotate(-30 189.5 290)"/>
<circle cx="209.5" cy="285" r="2"/>
<circle cx="204.4" cy="285" r="0.75"/>
<circle cx="214.6" cy="285" r="0.75"/>
<circle cx="229.5" cy="290" r="2"/>
<circle cx="224.4" cy="290" r="0.75" transform="rotate(30 229.5 290)"/>
<circle cx="234.6" cy="290" r="0.75" transform="rotate(30 229.5 290)"/>
<circle cx="249.5" cy="290" r="2"/>
<circle cx="244.4" cy="290" r="0.75"/>
<circle cx="254.6" cy="290" r="0.75"/>
<circle cx="269.5" cy="290" r="2"/>
<circle cx="264.4" cy="290" r="0.75"/>
<circle cx="274.6" cy="290" r="0.75"/>
<circle cx="289.5" cy="290" r="2"/>
<circle cx="284.4" cy="290" r="0.75"/>
<circle cx="294.6" cy="290" r="0.75"/>
<circle cx="309.5" cy="290" r="2"/>
<circle cx="304.4" cy="290" r="0.75" transform="rotate(30 309.5 290)"/>
<circle cx="314.6" cy="290" r="0.75" transform="rotate(30 309.5 290)"/>
<circle cx="327" cy="300" r="2"/>
<circle cx="321.9" cy="300" r="0.75" transform="rotate(30 327 300)"/>
<circle cx="332.1" cy="300" r="0.75" transform="rotate(30 327 300)"/>

<circle cx="67" cy="317.5" r="2"/>
<circle cx="61.9" cy="317.5" r="0.75" transform="rotate(-30 67 317.5)"/>
<circle cx="72.1" cy="317.5" r="0.75" transform="rotate(-30 67 317.5)"/>
<circle cx="84.5" cy="307.5" r="2"/>
<circle cx="79.4" cy="307.5" r="0.75"/>
<circle cx="89.6" cy="307.5" r="0.75"/>
<circle cx="104.5" cy="307.5" r="2"/>
<circle cx="99.4" cy="307.5" r="0.75"/>
<circle cx="109.6" cy="307.5" r="0.75"/>
<circle cx="122" cy="317.5" r="2"/>
<circle cx="116.9" cy="317.5" r="0.75" transform="rotate(30 122 317.5)"/>
<circle cx="127.1" cy="317.5" r="0.75" transform="rotate(30 122 317.5)"/>
<circle cx="142" cy="317.5" r="2"/>
<circle cx="136.9" cy="317.5" r="0.75" transform="rotate(30 142 317.5)"/>
<circle cx="147.1" cy="317.5" r="0.75" transform="rotate(30 142 317.5)"/>
<circle cx="162" cy="317.5" r="2"/>
<circle cx="156.9" cy="317.5" r="0.75" transform="rotate(-30 162 317.5)"/>
<circle cx="167.1" cy="317.5" r="0.75" transform="rotate(-30 162 317.5)"/>
<circle cx="182" cy="317.5" r="2"/>
<circle cx="176.9" cy="317.5" r="0.75" transform="rotate(-30 182 317.5)"/>
<circle cx="187.1" cy="317.5" r="0.75" transform="rotate(-30 182 317.5)"/>
<circle cx="199.5" cy="307.5" r="2"/>
<circle cx="194.4" cy="307.5" r="0.75"/>
<circle cx="204.6" cy="307.5" r="0.75"/>
<circle cx="219.5" cy="307.5" r="2"/>
<circle cx="214.4" cy="307.5" r="0.75"/>
<circle cx="224.6" cy="307.5" r="0.75"/>
<circle cx="239.5" cy="307.5" r="2"/>
<circle cx="234.4" cy="307.5" r="0.75"/>
<circle cx="244.6" cy="307.5" r="0.75"/>
<circle cx="259.5" cy="307.5" r="2"/>
<circle cx="254.4" cy="307.5" r="0.75"/>
<circle cx="264.6" cy="307.5" r="0.75"/>
<circle cx="279.5" cy="307.5" r="2"/>
<circle cx="274.4" cy="307.5" r="0.75"/>
<circle cx="284.6" cy="307.5" r="0.75"/>
<circle cx="299.5" cy="307.5" r="2"/>
<circle cx="294.4" cy="307.5" r="0.75"/>
<circle cx="304.6" cy="307.5" r="0.75"/>
<circle cx="317" cy="317.5" r="2"/>
<circle cx="311.9" cy="317.5" r="0.75" transform="rotate(30 317 317.5)"/>
<circle cx="322.1" cy="317.5" r="0.75" transform="rotate(30 317 317.5)"/>

<circle cx="84.5" cy="327.5" r="2"/>
<circle cx="79.4" cy="327.5" r="0.75"/>
<circle cx="89.6" cy="327.5" r="0.75"/>
<circle cx="104.5" cy="327.5" r="2"/>
<circle cx="99.4" cy="327.5" r="0.75"/>
<circle cx="109.6" cy="327.5" r="0.75"/>
<circle cx="199.5" cy="327.5" r="2"/>
<circle cx="194.4" cy="327.5" r="0.75"/>
<circle cx="204.6" cy="327.5" r="0.75"/>
<circle cx="219.5" cy="327.5" r="2"/>
<circle cx="214.4" cy="327.5" r="0.75"/>
<circle cx="224.6" cy="327.5" r="0.75"/>
<circle cx="239.5" cy="327.5" r="2"/>
<circle cx="234.4" cy="327.5" r="0.75"/>
<circle cx="244.6" cy="327.5" r="0.75"/>
<circle cx="259.5" cy="327.5" r="2"/>
<circle cx="254.4" cy="327.5" r="0.75"/>
<circle cx="264.6" cy="327.5" r="0.75"/>
<circle cx="279.5" cy="327.5" r="2"/>
<circle cx="274.4" cy="327.5" r="0.75"/>
<circle cx="284.6" cy="327.5" r="0.75"/>
<circle cx="299.5" cy="327.5" r="2"/>
<circle cx="294.4" cy="327.5" r="0.75"/>
<circle cx="304.6" cy="327.5" r="0.75"/>

<circle cx="152" cy="337.625" r="2"/>
<circle cx="146.9" cy="337.625" r="0.75"/>
<circle cx="157.1" cy="337.625" r="0.75"/>

</svg>
